<svg xmlns="http://www.w3.org/2000/svg" width="1600" height="900" viewBox="0 0 1600 900">
<rect width="1600" height="900" fill="#f7f4ec"/>
<path d="M0 0H1600V900H0Z" fill="none" stroke="#111827" stroke-width="20"/>
<rect x="44" y="44" width="680" height="96" fill="#7c3aed" stroke="#111827" stroke-width="8"/>
<rect x="724" y="44" width="832" height="96" fill="#ffffff" stroke="#111827" stroke-width="8"/>
<text x="80" y="105" font-size="34" font-weight="950" fill="#111827" letter-spacing="2">自動化採購 04</text>
<path d="M1450 92H1510M1482 62L1514 92L1482 122" stroke="#111827" stroke-width="12" fill="none" stroke-linecap="square"/>
<rect x="44" y="172" width="610" height="584" fill="#ffffff" stroke="#111827" stroke-width="8"/>
<text x="84" y="288" font-size="58" font-weight="950" fill="#0f172a">通知先寫進紀錄</text>
<text x="86" y="445" font-size="27" font-weight="850" fill="#334155">流程沒驗證前，</text>
<text x="86" y="481" font-size="27" font-weight="850" fill="#334155">不要急著真的寄信</text>
<rect x="84" y="590" width="504" height="96" fill="#111827"/>
<text x="118" y="630" font-size="25" font-weight="900" fill="#ffffff"># 先建立 Notifications</text>
<text x="118" y="664" font-size="25" font-weight="900" fill="#ffffff"># 確認內容後再寄出</text>
<rect x="690" y="172" width="866" height="584" fill="#ffffff" stroke="#111827" stroke-width="8"/>
<path d="M760 263V563" stroke="#111827" stroke-width="7" stroke-linecap="square"/>
<circle cx="760" cy="278" r="22" fill="#7c3aed" stroke="#111827" stroke-width="6"/>
<text x="760" y="286" text-anchor="middle" font-size="22" font-weight="950" fill="#ffffff">01</text>
<path d="M760 317l-10-10M760 317l10-10" stroke="#111827" stroke-width="5" fill="none"/>
<rect x="820" y="245" width="660" height="66" fill="#7c3aed" stroke="#111827" stroke-width="6"/>
<text x="846" y="283" font-size="28" font-weight="950" fill="#ffffff">暫存</text>
<text x="970" y="275" font-size="17" font-weight="800" fill="#eef2ff">先建立 Notifications</text>
<circle cx="760" cy="368" r="22" fill="#ffffff" stroke="#111827" stroke-width="6"/>
<text x="760" y="376" text-anchor="middle" font-size="22" font-weight="950" fill="#111827">02</text>
<path d="M760 407l-10-10M760 407l10-10" stroke="#111827" stroke-width="5" fill="none"/>
<rect x="820" y="335" width="660" height="66" fill="#ffffff" stroke="#111827" stroke-width="6"/>
<text x="846" y="373" font-size="28" font-weight="950" fill="#111827">紀錄</text>
<text x="970" y="365" font-size="17" font-weight="800" fill="#334155">確認內容後再寄出</text>
<circle cx="760" cy="458" r="22" fill="#ffffff" stroke="#111827" stroke-width="6"/>
<text x="760" y="466" text-anchor="middle" font-size="22" font-weight="950" fill="#111827">03</text>
<path d="M760 497l-10-10M760 497l10-10" stroke="#111827" stroke-width="5" fill="none"/>
<rect x="820" y="425" width="660" height="66" fill="#ffffff" stroke="#111827" stroke-width="6"/>
<text x="846" y="463" font-size="28" font-weight="950" fill="#111827">確認</text>
<text x="970" y="455" font-size="17" font-weight="800" fill="#334155">避免測試打擾真人</text>
<circle cx="760" cy="548" r="22" fill="#7c3aed" stroke="#111827" stroke-width="6"/>
<text x="760" y="556" text-anchor="middle" font-size="22" font-weight="950" fill="#ffffff">04</text>

<rect x="820" y="515" width="660" height="66" fill="#7c3aed" stroke="#111827" stroke-width="6"/>
<text x="846" y="553" font-size="28" font-weight="950" fill="#ffffff">送出</text>
<text x="970" y="545" font-size="17" font-weight="800" fill="#eef2ff">先建立 Notifications</text>
<rect x="44" y="784" width="716" height="72" fill="#ffffff" stroke="#111827" stroke-width="8"/>
<text x="82" y="831" font-size="28" font-weight="950" fill="#111827">CALUMAI / BUILD IN PUBLIC</text>
<rect x="760" y="784" width="796" height="72" fill="#7c3aed" stroke="#111827" stroke-width="8"/>
<text x="804" y="831" font-size="26" font-weight="950" fill="#111827">BLOG 16:9 FLOW DIAGRAM</text>
<rect x="1360" y="802" width="150" height="36" fill="#f7f4ec" stroke="#111827" stroke-width="5"/>
<text x="1435" y="828" text-anchor="middle" font-size="23" font-weight="950" fill="#111827">NO.006</text>
</svg>