<svg xmlns="http://www.w3.org/2000/svg" width="1600" height="900" viewBox="0 0 1600 900">
<rect width="1600" height="900" fill="#f7f4ec"/>
<path d="M0 0H1600V900H0Z" fill="none" stroke="#111827" stroke-width="20"/>
<rect x="44" y="44" width="610" height="96" fill="#144ce6" stroke="#111827" stroke-width="8"/>
<rect x="654" y="44" width="902" height="96" fill="#fff" stroke="#111827" stroke-width="8"/>
<text x="80" y="105" font-size="34" font-weight="950" fill="#111827">&#x65CF;&#x8A9E;&#x5C04;&#x624B; 04 / BLOG 05</text>
<rect x="44" y="172" width="570" height="584" fill="#fff" stroke="#111827" stroke-width="8"/>
<text x="84" y="295" font-size="54" font-weight="950" fill="#111827">&#x56DE;&#x5230;&#x53EF;&#x73A9;&#x72C0;&#x614B;</text>
<text x="86" y="455" font-size="27" font-weight="950" fill="#334155">&#x7528;&#x771F;&#x5BE6;&#x756B;&#x9762;&#x56DE;&#x982D;&#x9A57;&#x8B49;</text>
<rect x="84" y="604" width="450" height="78" fill="#111827"/>
<text x="118" y="654" font-size="30" font-weight="950" fill="#fff">BUILD IN PUBLIC</text>
<rect x="650" y="172" width="906" height="584" fill="#fff" stroke="#111827" stroke-width="8"/>
<circle cx="690" cy="263" r="27" fill="#144ce6" stroke="#111827" stroke-width="7"/>
<text x="690" y="272" text-anchor="middle" font-size="24" font-weight="950" fill="#fff">01</text>
<path d="M690 297V327" stroke="#111827" stroke-width="7"/>
<rect x="760" y="235" width="650" height="58" fill="#144ce6" stroke="#111827" stroke-width="7"/>
<text x="790" y="274" font-size="28" font-weight="950" fill="#fff">&#x958B;&#x59CB;&#x7DF4;&#x7FD2;</text>
<circle cx="690" cy="358" r="27" fill="#f7f4ec" stroke="#111827" stroke-width="7"/>
<text x="690" y="367" text-anchor="middle" font-size="24" font-weight="950" fill="#111827">02</text>
<path d="M690 392V422" stroke="#111827" stroke-width="7"/>
<rect x="760" y="330" width="650" height="58" fill="#fff" stroke="#111827" stroke-width="7"/>
<text x="790" y="369" font-size="28" font-weight="950" fill="#111827">&#x807D;&#x65CF;&#x8A9E;&#x97F3;</text>
<circle cx="690" cy="453" r="27" fill="#f7f4ec" stroke="#111827" stroke-width="7"/>
<text x="690" y="462" text-anchor="middle" font-size="24" font-weight="950" fill="#111827">03</text>
<path d="M690 487V517" stroke="#111827" stroke-width="7"/>
<rect x="760" y="425" width="650" height="58" fill="#fff" stroke="#111827" stroke-width="7"/>
<text x="790" y="464" font-size="28" font-weight="950" fill="#111827">&#x770B;&#x5716;&#x8FA8;&#x8A8D;</text>
<circle cx="690" cy="548" r="27" fill="#f7f4ec" stroke="#111827" stroke-width="7"/>
<text x="690" y="557" text-anchor="middle" font-size="24" font-weight="950" fill="#111827">04</text>
<path d="M690 582V612" stroke="#111827" stroke-width="7"/>
<rect x="760" y="520" width="650" height="58" fill="#fff" stroke="#111827" stroke-width="7"/>
<text x="790" y="559" font-size="28" font-weight="950" fill="#111827">&#x62FC;&#x51FA;&#x55AE;&#x5B57;</text>
<circle cx="690" cy="643" r="27" fill="#144ce6" stroke="#111827" stroke-width="7"/>
<text x="690" y="652" text-anchor="middle" font-size="24" font-weight="950" fill="#fff">05</text>

<rect x="760" y="615" width="650" height="58" fill="#144ce6" stroke="#111827" stroke-width="7"/>
<text x="790" y="654" font-size="28" font-weight="950" fill="#fff">&#x7D2F;&#x7A4D;&#x5206;&#x6578;</text>
<rect x="44" y="784" width="716" height="72" fill="#fff" stroke="#111827" stroke-width="8"/>
<text x="82" y="831" font-size="28" font-weight="950" fill="#111827">CALUMAI / &#x65CF;&#x8A9E;&#x5B78;&#x7FD2;</text>
<rect x="760" y="784" width="796" height="72" fill="#144ce6" stroke="#111827" stroke-width="8"/>
<text x="804" y="831" font-size="26" font-weight="950" fill="#111827">BLOG 16:9 FLOW DIAGRAM</text>
<rect x="1360" y="802" width="150" height="36" fill="#f7f4ec" stroke="#111827" stroke-width="5"/>
<text x="1435" y="828" text-anchor="middle" font-size="23" font-weight="950" fill="#111827">NO.004</text>
</svg>